<svg id="Layer_1" data-name="Layer 1" xmlns="http://www.w3.org/2000/svg" viewBox="0 0 1005.32 121.72"><defs><style>.cls-1{fill:#4167b1;}</style></defs><path d="M8.81,91.06c8,7.87,16.16,11.7,25.62,11.7,10.85,0,18.08-5.11,18.08-12.44,0-6.49-4-9.89-15.1-11.7L25,76.6C11.15,74.26,4.66,67.78,4.66,57.25c0-12.86,10.74-21.37,27.43-21.37a50.33,50.33,0,0,1,30,10.1l-6.16,8.51c-8.08-6.17-16.16-9.15-24.35-9.15-9.68,0-16.16,4.47-16.16,11.06,0,6,3.72,8.93,13.29,10.53l12,1.91C56.55,71.39,63.56,78,63.56,89.47c0,13.61-11.9,22.86-29.66,22.86A44.85,44.85,0,0,1,2,98.93Z" transform="translate(-2 -14.81)"/><path d="M83,89.36c0,8.4,5.1,13.72,13.5,13.72a15.24,15.24,0,0,0,13.29-7V57.14h10.63v54.12H109.81v-5.42a22.1,22.1,0,0,1-16.27,6.49c-12.44,0-21.05-8.72-21.05-21.16v-34H83Z" transform="translate(-2 -14.81)"/><path d="M132.77,57.14H143.3v5.11a25.58,25.58,0,0,1,16.58-6c15.42,0,27.33,12.34,27.33,27.86s-11.91,28-27.64,28a26.83,26.83,0,0,1-16.17-5.31v26.47H132.77ZM143.4,71.92V96.59a20.16,20.16,0,0,0,15,6.27c10.52,0,18.39-8.08,18.39-18.6,0-10.74-8.08-18.72-18.39-18.72C152.12,65.54,146.91,67.88,143.4,71.92Z" transform="translate(-2 -14.81)"/><path d="M197.2,57.14h10.53v5.11a25.58,25.58,0,0,1,16.58-6c15.42,0,27.33,12.34,27.33,27.86s-11.91,28-27.65,28a26.8,26.8,0,0,1-16.16-5.31v26.47H197.2Zm10.63,14.78V96.59a20.13,20.13,0,0,0,15,6.27c10.53,0,18.4-8.08,18.4-18.6,0-10.74-8.08-18.72-18.4-18.72C216.55,65.54,211.34,67.88,207.83,71.92Z" transform="translate(-2 -14.81)"/><path d="M287.46,56.08a28.13,28.13,0,1,1-28.17,28.09v0a27.77,27.77,0,0,1,27.47-28.07Zm0,9.36c-9.88,0-17.75,8.18-17.75,18.71S277.47,103,287.46,103s17.76-8.29,17.76-18.82S297.35,65.44,287.46,65.44Z" transform="translate(-2 -14.81)"/><path d="M325.52,57.14h10.64v6.7A17.37,17.37,0,0,1,350.94,56a15,15,0,0,1,5.52.86v9.56a19.25,19.25,0,0,0-6.37-1.17c-5.64,0-11,2.77-13.93,9.79v36.25H325.52Z" transform="translate(-2 -14.81)"/><path d="M373.26,66.08H361.78V57.14h11.48V43.32l10.53-2.55V57.14h15.95v8.94H383.79V95.42c0,5.53,2.23,7.55,8,7.55a20.52,20.52,0,0,0,7.76-1.28v8.93a36,36,0,0,1-10.1,1.6c-10.52,0-16.16-5-16.16-14.35Z" transform="translate(-2 -14.81)"/><path d="M431.1,56.29c14.88,0,26.15,12.34,26.15,28.29v3.08H414.51a18.24,18.24,0,0,0,18.29,15.52,21.08,21.08,0,0,0,13.72-4.78l6.8,6.7a32,32,0,0,1-20.95,7.12C416.43,112.22,404,100,404,84.15,404,68.63,415.79,56.29,431.1,56.29ZM414.62,79.68h32.11c-1.49-8.29-8-14.46-15.84-14.46C422.59,65.22,416.21,71.18,414.62,79.68Z" transform="translate(-2 -14.81)"/><path d="M509,106.16a25.53,25.53,0,0,1-16.58,6c-15.42,0-27.33-12.44-27.33-28S477,56.29,492.66,56.29a27.11,27.11,0,0,1,16.26,5.32V36.84l10.64-2.34v76.76H509Zm-15.1-3.3a19.35,19.35,0,0,0,15-6.48V71.82a20.22,20.22,0,0,0-15-6.38c-10.52,0-18.39,8.08-18.39,18.6,0,10.74,8.11,18.82,18.42,18.82Z" transform="translate(-2 -14.81)"/><path d="M580.9,112.11a26.48,26.48,0,0,1-16.27-5.42v4.57H554.11V36.84l10.63-2.34V62.14a25.16,25.16,0,0,1,16.48-5.85c15.42,0,27.32,12.34,27.32,27.86S596.64,112.11,580.9,112.11ZM564.74,71.92V96.59a20.13,20.13,0,0,0,15,6.27c10.53,0,18.39-8.08,18.39-18.6,0-10.74-8.08-18.72-18.39-18.72C573.46,65.54,568.25,67.88,564.74,71.92Z" transform="translate(-2 -14.81)"/><path d="M632.15,111.37,610.56,57.14h11.7L638.1,98.5l17.44-41.36H667l-25.84,60c-4.89,11.16-10.42,16.16-20.73,16.16a22.77,22.77,0,0,1-5.64-.53v-9.36a17.53,17.53,0,0,0,4.68.43c4.57,0,8.19-2.13,10.74-8Z" transform="translate(-2 -14.81)"/><path class="cls-1" d="M901.44,23.26l-2.94-8.45H850.11v8.45Zm5.61,16.13-2.94-8.45h-54v8.45Zm36,96.79h42.25v-8.45H943.06v8.45Zm0-16.13h42.25V111.6H943.06v8.45Zm0-16.13h25.35V95.47H943.06v8.45Zm25.35-24.58H943.06v8.45h25.35V79.34Zm-25.35-7.69h25.35V63.2H920.08L917.71,70l-2.38-6.83H867v8.45h25.35V63.89l2.73,7.76h45.24l2.73-7.76v7.76Zm25.35-24.58H925.69l-2.93,8.45h45.65V47.07ZM867,87.79h25.35V79.34H867v8.45Zm0,16.13h25.35V95.47H867v8.45Zm-16.9,16.13h42.25V111.6H850.11v8.45Zm0,16.13h42.25v-8.45H850.11v8.45Zm86.8-121.37L934,23.26h51.33V14.81Zm-8.54,24.58h56.94V30.94h-54l-2.93,8.45ZM867,55.52h45.65l-2.94-8.45H867v8.45Zm33.74,32.27h33.92l3-8.45H897.78l3,8.45Zm5.66,16.13H929l3-8.45H903.45l3,8.45Zm5.66,16.13h11.27l3-8.45h-17.2l3,8.45Zm5.64,16.13,2.94-8.45h-5.88l2.94,8.45Zm-169,0h62.22a32,32,0,0,0,21.77-8.45h-84v8.45Zm66.06-40.71v8.45H843.2a32.21,32.21,0,0,0-1.13-8.45Zm-49.16,8.45H791V95.47H765.61v8.45Zm49.16-48.4h27.3a32.21,32.21,0,0,0,1.13-8.45H814.77v8.45Zm-49.16,0H791V47.07H765.61v8.45Zm45.32-40.71H748.71v8.45h84a32.14,32.14,0,0,0-21.77-8.45Zm27.94,16.13H748.71v8.45h93.56a32.32,32.32,0,0,0-3.4-8.45ZM765.61,63.2v8.45h66.2a32.24,32.24,0,0,0,7.05-8.45Zm66.2,16.14h-66.2v8.45h73.25a32.24,32.24,0,0,0-7.05-8.45Zm-83.1,40.71h90.16a32.32,32.32,0,0,0,3.4-8.45H748.71v8.45Zm-67.6-96.79h59.15V14.81H681.11v8.45Zm0,16.13h59.15V30.94H681.11v8.45Zm42.25,7.68H698v8.45h25.35V47.07ZM698,71.65h25.35V63.2H698v8.45Zm0,16.14h25.35V79.34H698v8.45Zm0,16.13h25.35V95.47H698v8.45Zm-16.9,16.13h59.15V111.6H681.11v8.45Zm0,7.68h59.15v8.45H681.11v-8.45Zm320,2c.52,0,.81-.23.81-.71v-.48c0-.49-.29-.71-.81-.71H999.9v1.9Zm-1.22,3.55h-1.65v-6.75h3.07a2.05,2.05,0,0,1,2.29,2.13,2,2,0,0,1-1.23,2l1.52,2.58h-1.81l-1.26-2.32h-.93v2.32Zm5.9-3v-.84a4.94,4.94,0,0,0-9.87,0v.84a4.94,4.94,0,0,0,9.87,0Zm-11.39-.42a6.46,6.46,0,1,1,6.46,6.65,6.48,6.48,0,0,1-6.46-6.65Z" transform="translate(-2 -14.81)"/></svg>