<?xml version="1.0" encoding="UTF-8" standalone="no"?>
<svg
    xmlns:stunner="http://kiegroup.org/2017/stunner"
    xmlns="http://www.w3.org/2000/svg"
    height="80px"
    width="60px"
    xml:space="preserve"
    viewBox="0 0 600 800"
    id="dataObject"
    version="1.1">

  <path
      d="M 395.814,0 H 69.736 a 9,9 135 0 0 -9,9 l 0,594 a 9,9 45 0 0 9,9 h 472.527 a 9,9 135 0 0 9,-9 V 162 a 22.418301,22.418301 68.126626 0 0 -6.22325,-15.50163 L 411.03725,6.5016288 A 21.073064,21.073064 23.126626 0 0 395.814,0 Z m 15.22325,6.5016288 134.0025,139.9967412 a 3.802384,3.802384 113.34982 0 1 -2.77648,6.43151 l -128.47515,-1.00096 a 9.0688636,9.0688636 45.228026 0 1 -8.99821,-9.07012 l 0.0226,-133.8588001 a 3.6140007,3.6140007 158.13146 0 1 6.22477,-2.4983711 z"


      class="annotation_data_object_main"
  />


  <path
      class="annotation_data_object_fold"
      d="m 407.82643,13.025287 0.74943,129.127383 a 8.0963887,8.0963887 45.010565 0 0 8.04628,8.04925 l 121.29361,0.7487 a 3.4145012,3.4145012 113.46706 0 0 2.50117,-5.76134 L 413.27868,10.836145 a 3.1583024,3.1583024 158.12397 0 0 -5.45225,2.189142 z"

  />

  <g stunner:transform="non-scalable"
      class="annotation_group_data_object"
      id="shapeDataObject"/>

</svg>