<?xml version="1.0" encoding="UTF-8" standalone="no"?>
<svg
    xmlns:stunner="http://kiegroup.org/2017/stunner"
    xmlns="http://www.w3.org/2000/svg"
    height="80px"
    width="60px"
    xml:space="preserve"
    viewBox="0 0 600 800"
    id="dataObject"
    version="1.1">

  <path
      class="annotation_data_object_main"
      d="M 335.078,0 269.86273,0 204.64758,0 139.43086,0 74.216393,0 9,0 7.5924575,0.11070824 6.2185679,0.44057195 4.9140728,0.98093696 3.7106782,1.7182586 2.636039,2.636039 1.7190387,3.7096044 0.98080091,4.9143399 0.44047932,6.218853 0.11091591,7.5911466 0,9 V 127.79939 246.59857 365.39873 484.19992 603 l 0.11070824,1.40754 0.32986371,1.37389 0.54036501,1.3045 0.73732164,1.20339 0.9177804,1.07464 1.0735654,0.917 1.2047355,0.73824 1.3045131,0.54032 1.3722936,0.32956 L 9,612 h 94.50492 94.50474 94.50553 94.50634 94.50547 l 1.40754,-0.11071 1.37389,-0.32986 1.3045,-0.54037 1.20339,-0.73732 1.07464,-0.91778 0.917,-1.07356 0.73824,-1.20474 0.54032,-1.30451 0.32956,-1.3723 L 490.527,603 V 514.80045 426.60106 338.40095 250.20006 162 l -0.2608,-3.41015 -0.77663,-3.33073 -1.27437,-3.17426 -1.74212,-2.94306 -2.16933,-2.64343 L 457.50339,118.49916 430.70307,90.50001 403.90296,62.501071 377.10146,34.500675 350.30125,6.5016288 347.76072,4.2437135 344.89092,2.4241573 341.76542,1.0892315 338.46564,0.27396857 335.078,0 v 0 0 0 0 0 m 15.22325,6.5016288 26.80036,27.9992052 26.80032,27.999154 26.80011,27.998939 26.8015,28.000393 26.80021,27.99905 0.53517,0.70888 0.35607,0.8146 0.15729,0.87442 -0.0498,0.88686 -0.25466,0.85153 -0.44472,0.76886 -0.6118,0.64503 -0.74427,0.48519 -0.8363,0.29932 -0.88351,0.0968 -25.6949,-0.20019 -25.69485,-0.20019 -25.69466,-0.20019 -25.69599,-0.2002 -25.69475,-0.20019 -2.78576,-0.45881 -2.50882,-1.29747 -1.9887,-2.00427 -1.27777,-2.51858 -0.43716,-2.79099 0.005,-26.77162 0.005,-26.771578 0.005,-26.771369 0.005,-26.772762 0.005,-26.7714711 0.10166,-0.8513376 0.29976,-0.8035603 0.4801,-0.7098518 0.6336,-0.5769268 0.75274,-0.4116586 0.82791,-0.2228965 0.85739,-0.021261 0.83763,0.1810067 0.77147,0.3729816 0.66251,0.5451336 h -3e-5 v 0 0 0 0"
  />


  <path
      class="annotation_data_object_fold"
      d="m 347.83,13.025287 0.14989,25.825345 0.14988,25.825298 0.14988,25.825099 0.1499,25.826441 0.14988,25.8252 0.40288,2.48231 1.14724,2.23605 1.77721,1.77818 2.23674,1.1489 2.48221,0.40381 24.2586,0.14974 24.25855,0.14974 24.25837,0.14974 24.25963,0.14974 24.25846,0.14974 0.79022,-0.0875 0.74921,-0.26853 0.66639,-0.43426 0.54779,-0.57641 0.39955,-0.68797 0.2297,-0.76116 0.0471,-0.79448 -0.13781,-0.78336 -0.3151,-0.7301 -0.47591,-0.63754 -25.42752,-26.87049 -25.42747,-26.870441 -25.42728,-26.870234 -25.4286,-26.871633 -25.42737,-26.870337 -0.579,-0.481484 -0.67672,-0.330506 -0.73506,-0.1609516 -0.75372,0.017582 -0.72628,0.1952937 -0.66046,0.361744 -0.55592,0.508083 -0.41963,0.624606 -0.26041,0.707521 -0.0851,0.747254 v 0 0 0 0 0"
  />

  <g stunner:transform="non-scalable"
     class="annotation_group_data_object"
     id="shapeDataObject"/>

</svg>